<?xml version="1.0" encoding="utf-8"?>
<!-- Generator: Adobe Illustrator 24.0.2, SVG Export Plug-In . SVG Version: 6.00 Build 0)  -->
<svg version="1.1" id="Capa_1" xmlns="http://www.w3.org/2000/svg" xmlns:xlink="http://www.w3.org/1999/xlink" x="0px" y="0px"
	 viewBox="0 0 100 296.5" style="enable-background:new 0 0 100 296.5;" xml:space="preserve">
<style type="text/css">
	.st0{fill:#35F500;}
</style>
<g>
	<path class="st0" d="M89.4,151c4,0,7.3-3.1,7.6-7.2c0.4-6.6,0.6-12.6,0.6-18.2c0-28.7-4.6-44.5-10.9-54.1
		c-3.1-4.7-6.8-7.8-10.1-9.5c-3.2-1.6-6-2-7.7-2c-0.1,0-0.3,0-0.4,0H31.7c-0.1,0-0.3,0-0.4,0c-1.7,0-4.5,0.4-7.7,2
		c-5.1,2.5-10.6,8.1-14.5,17.9c-3.9,9.9-6.5,24.1-6.5,45.6c0,5.6,0.2,11.6,0.6,18.2c0.2,4,3.6,7.1,7.6,7.1c0.2,0,0.3,0,0.5,0
		c4.2-0.2,7.4-3.8,7.1-8c-0.4-6.3-0.5-12.1-0.5-17.3c0-23,3.3-35.9,6.6-42.7v142.4c0,6.5,5.3,11.7,11.7,11.7
		c6.5,0,11.7-5.3,11.7-11.7v-85.7h4.4v85.7c0,6.5,5.3,11.7,11.7,11.7c6.5,0,11.7-5.3,11.7-11.7V83.1c0.6,1.2,1.1,2.5,1.7,4
		c2.7,7.4,4.9,19.6,4.9,38.6c0,5.2-0.2,11-0.5,17.3c-0.2,4.2,3,7.8,7.1,8C89.1,151,89.2,151,89.4,151z"/>
	<circle class="st0" cx="50" cy="33.4" r="21.4"/>
</g>
</svg>
